solid OpenSCAD_Model
  facet normal -1 0 0
    outer loop
      vertex -100 -13 0
      vertex -100 -13 22
      vertex -100 -3.2 18
    endloop
  endfacet
  facet normal -1 0 0
    outer loop
      vertex -100 -13 0
      vertex -100 -3.2 18
      vertex -100 3.2 18
    endloop
  endfacet
  facet normal -1 0 0
    outer loop
      vertex -100 -13 22
      vertex -100 -3.2 22
      vertex -100 -3.2 18
    endloop
  endfacet
  facet normal 0 -1 0
    outer loop
      vertex -100 -13 0
      vertex 100 -13 22
      vertex -100 -13 22
    endloop
  endfacet
  facet normal 0 0 1
    outer loop
      vertex -100 -13 22
      vertex 100 -13 22
      vertex -100 -3.2 22
    endloop
  endfacet
  facet normal -1 0 0
    outer loop
      vertex -100 -13 0
      vertex -100 13 22
      vertex -100 13 0
    endloop
  endfacet
  facet normal 0 0 -1
    outer loop
      vertex -100 -13 0
      vertex -100 13 0
      vertex 100 13 0
    endloop
  endfacet
  facet normal 0 1 0
    outer loop
      vertex -100 13 0
      vertex -100 13 22
      vertex 100 13 0
    endloop
  endfacet
  facet normal -1 0 0
    outer loop
      vertex -100 -13 0
      vertex -100 3.2 18
      vertex -100 13 22
    endloop
  endfacet
  facet normal -1 0 0
    outer loop
      vertex -100 13 22
      vertex -100 3.2 18
      vertex -100 3.2 22
    endloop
  endfacet
  facet normal 0 0 1
    outer loop
      vertex -100 13 22
      vertex -100 3.2 22
      vertex 100 3.2 22
    endloop
  endfacet
  facet normal 0 -1 0
    outer loop
      vertex -100 -13 0
      vertex 100 -13 0
      vertex 100 -13 22
    endloop
  endfacet
  facet normal 0 0 -1
    outer loop
      vertex -100 -13 0
      vertex 100 13 0
      vertex 100 -13 0
    endloop
  endfacet
  facet normal 1 0 0
    outer loop
      vertex 100 -13 0
      vertex 100 13 0
      vertex 100 -13 22
    endloop
  endfacet
  facet normal 0 0 1
    outer loop
      vertex 100 -13 22
      vertex 100 -3.2 22
      vertex -100 -3.2 22
    endloop
  endfacet
  facet normal 1 0 0
    outer loop
      vertex 100 -13 22
      vertex 100 13 0
      vertex 100 -3.2 18
    endloop
  endfacet
  facet normal 1 0 0
    outer loop
      vertex 100 -13 22
      vertex 100 -3.2 18
      vertex 100 -3.2 22
    endloop
  endfacet
  facet normal 0 1 0
    outer loop
      vertex -100 13 22
      vertex 100 13 22
      vertex 100 13 0
    endloop
  endfacet
  facet normal 0 0 1
    outer loop
      vertex -100 13 22
      vertex 100 3.2 22
      vertex 100 13 22
    endloop
  endfacet
  facet normal 1 0 0
    outer loop
      vertex 100 13 0
      vertex 100 3.2 18
      vertex 100 -3.2 18
    endloop
  endfacet
  facet normal 1 0 0
    outer loop
      vertex 100 13 22
      vertex 100 3.2 22
      vertex 100 3.2 18
    endloop
  endfacet
  facet normal 1 0 0
    outer loop
      vertex 100 13 0
      vertex 100 13 22
      vertex 100 3.2 18
    endloop
  endfacet
  facet normal 0 0 1
    outer loop
      vertex -100 -3.2 18
      vertex 100 -3.2 18
      vertex -100 3.2 18
    endloop
  endfacet
  facet normal 0 1 0
    outer loop
      vertex -100 -3.2 22
      vertex 100 -3.2 18
      vertex -100 -3.2 18
    endloop
  endfacet
  facet normal 0 -1 0
    outer loop
      vertex -100 3.2 22
      vertex -100 3.2 18
      vertex 100 3.2 22
    endloop
  endfacet
  facet normal 0 1 0
    outer loop
      vertex 100 -3.2 22
      vertex 100 -3.2 18
      vertex -100 -3.2 22
    endloop
  endfacet
  facet normal 0 0 1
    outer loop
      vertex -100 3.2 18
      vertex 100 -3.2 18
      vertex 100 3.2 18
    endloop
  endfacet
  facet normal 0 -1 0
    outer loop
      vertex -100 3.2 18
      vertex 100 3.2 18
      vertex 100 3.2 22
    endloop
  endfacet
endsolid OpenSCAD_Model
